<?xml version="1.0" encoding="utf-8"?>
<!-- Generator: Adobe Illustrator 16.0.0, SVG Export Plug-In . SVG Version: 6.00 Build 0)  -->
<!DOCTYPE svg PUBLIC "-//W3C//DTD SVG 1.1//EN" "http://www.w3.org/Graphics/SVG/1.1/DTD/svg11.dtd">
<svg version="1.1" xmlns="http://www.w3.org/2000/svg" xmlns:xlink="http://www.w3.org/1999/xlink" x="0px" y="0px" width="83.65px"
	 height="83.649px" viewBox="0 0 83.65 83.649" enable-background="new 0 0 83.65 83.649" xml:space="preserve">
<g id="Layer_2">
</g>
<g id="Fondo">
	<g>
		<g>
			<path fill="#ED1C24" d="M39.421,46.87l-0.606-8.994c-0.113-1.75-0.171-3.007-0.171-3.773c0-1.036,0.274-1.848,0.816-2.433
				c0.549-0.577,1.268-0.869,2.147-0.869c1.082,0,1.799,0.371,2.164,1.118c0.361,0.743,0.542,1.815,0.542,3.217
				c0,0.827-0.04,1.665-0.128,2.517l-0.809,9.254c-0.085,1.102-0.273,1.948-0.565,2.535c-0.282,0.586-0.756,0.882-1.424,0.882
				c-0.677,0-1.146-0.283-1.405-0.857C39.717,48.899,39.529,48.034,39.421,46.87z M41.496,59.223c-0.764,0-1.425-0.247-2.001-0.742
				c-0.568-0.494-0.852-1.187-0.852-2.074c0-0.774,0.274-1.436,0.816-1.983c0.549-0.541,1.214-0.814,2.002-0.814
				c0.791,0,1.464,0.273,2.019,0.814c0.557,0.547,0.833,1.209,0.833,1.983c0,0.877-0.276,1.564-0.839,2.065
				C42.906,58.974,42.253,59.223,41.496,59.223z"/>
		</g>
		<g>
			<path fill="#ED1C24" d="M75.558,72.003H8.094c-0.982,0-1.884-0.524-2.377-1.373c-0.492-0.85-0.492-1.896,0-2.745L39.446,9.458
				c0.981-1.701,3.774-1.701,4.756,0l33.733,58.426c0.494,0.85,0.494,1.895,0,2.745C77.444,71.479,76.542,72.003,75.558,72.003
				L75.558,72.003z M12.85,66.51h57.951L41.824,16.322L12.85,66.51L12.85,66.51z"/>
		</g>
	</g>
</g>
</svg>
