<?xml version="1.0" encoding="utf-8"?>
<!-- Generator: Adobe Illustrator 16.0.0, SVG Export Plug-In . SVG Version: 6.00 Build 0)  -->
<!DOCTYPE svg PUBLIC "-//W3C//DTD SVG 1.1//EN" "http://www.w3.org/Graphics/SVG/1.1/DTD/svg11.dtd">
<svg version="1.1" xmlns="http://www.w3.org/2000/svg" xmlns:xlink="http://www.w3.org/1999/xlink" x="0px" y="0px" width="83.65px"
	 height="83.649px" viewBox="0 0 83.65 83.649" enable-background="new 0 0 83.65 83.649" xml:space="preserve">
<g id="Layer_2">
</g>
<g id="Fondo">
	<path fill="#E6E7E8" d="M83.65,10.658C83.65,4.771,78.879,0,72.992,0H10.658C4.771,0,0,4.771,0,10.658v62.333
		c0,5.887,4.771,10.658,10.658,10.658h62.334c5.887,0,10.658-4.771,10.658-10.658V10.658z"/>
	<g>
		<path d="M53.041,43.917H12.362c-0.853,0-1.496-0.202-1.934-0.606c-0.437-0.404-0.655-0.92-0.655-1.545
			c0-0.621,0.226-1.13,0.671-1.517c0.446-0.391,1.086-0.585,1.918-0.585h40.555c0.842,0,1.475,0.194,1.901,0.585
			c0.428,0.387,0.639,0.896,0.639,1.517c0,0.625-0.211,1.141-0.639,1.545C54.392,43.715,53.799,43.917,53.041,43.917z"/>
		<path d="M30.728,23.351h3.776l6.015,14.232H36.32l-1.029-2.523H29.84l-1.01,2.523h-4.117L30.728,23.351z M34.16,32.011
			l-1.574-4.018l-1.596,4.018H34.16z"/>
		<g>
			<path d="M30.728,45.423h3.776l6.015,14.232H36.32l-1.029-2.523H29.84l-1.01,2.523h-4.117L30.728,45.423z M34.16,54.084
				l-1.574-4.017l-1.596,4.017H34.16z"/>
			<path d="M38.925,45.423c-0.932,0-1.614,0.683-1.614,1.535v0.02c0,0.842,0.674,1.515,1.595,1.515c0.93,0,1.613-0.683,1.613-1.534
				v-0.02C40.519,46.097,39.846,45.423,38.925,45.423z M39.509,46.978c0,0.356-0.228,0.634-0.584,0.634
				c-0.357,0-0.604-0.287-0.604-0.653v-0.02c0-0.356,0.228-0.644,0.585-0.644c0.355,0,0.604,0.297,0.604,0.664V46.978z"/>
		</g>
		<path fill="none" d="M53.085,41.833c0-5.468-2.129-10.607-5.993-14.474c-0.158-0.157-0.33-0.294-0.492-0.446l-5.561-3.727
			c-2.615-1.184-5.469-1.826-8.423-1.826c-0.02,0-0.039,0.003-0.06,0.003v40.925c2.904,0.008,5.801-0.615,8.495-1.831l5.596-3.749
			c0.146-0.138,0.302-0.259,0.444-0.403C50.956,52.441,53.085,47.3,53.085,41.833z"/>
		<path fill="none" d="M18.137,27.356c-3.863,3.865-5.99,9.001-5.99,14.468c0,5.472,2.129,10.617,5.996,14.484
			c2.795,2.795,6.21,4.588,9.804,5.424V21.914C24.264,22.77,20.878,24.615,18.137,27.356z"/>
		<path fill="none" d="M55.634,50.686l13.222-8.858l-13.228-8.864c1.076,2.792,1.644,5.786,1.644,8.87
			C57.271,44.909,56.705,47.897,55.634,50.686z"/>
		<path d="M32.557,62.288v3.86l8.495-5.691C38.357,61.672,35.461,62.295,32.557,62.288z"/>
		<path d="M18.143,56.309c-3.867-3.867-5.996-9.012-5.996-14.484c0-5.467,2.127-10.603,5.99-14.468
			c2.741-2.741,6.127-4.586,9.81-5.442v-4.297c-4.81,0.917-9.232,3.242-12.768,6.779C10.521,29.049,7.96,35.241,7.96,41.824
			c0,6.592,2.563,12.785,7.223,17.446c3.615,3.614,8.084,5.867,12.764,6.763v-4.3C24.353,60.896,20.938,59.104,18.143,56.309z"/>
		<path d="M41.039,23.186l-8.482-5.684v3.861c0.021,0,0.04-0.003,0.06-0.003C35.57,21.36,38.424,22.002,41.039,23.186z"/>
		<path d="M47.092,27.359c3.864,3.867,5.993,9.006,5.993,14.474c0,5.467-2.129,10.608-5.993,14.472
			c-0.143,0.144-0.299,0.265-0.444,0.403l8.986-6.022c1.071-2.789,1.638-5.777,1.638-8.853c0-3.083-0.567-6.077-1.644-8.87
			L46.6,26.913C46.762,27.065,46.934,27.202,47.092,27.359z"/>
		<path d="M46.647,56.708l-5.596,3.749C43.064,59.547,44.957,58.3,46.647,56.708z"/>
		<path d="M41.039,23.186l5.561,3.727C44.938,25.354,43.064,24.103,41.039,23.186z"/>
		<path d="M74.619,39.829L31.404,11.513c-0.715-0.414-1.594-0.414-2.306,0c-0.713,0.411-1.152,1.171-1.152,1.996v4.107
			c1.522-0.291,3.085-0.443,4.67-0.443c6.587,0,12.779,2.568,17.436,7.226c2.478,2.476,4.354,5.391,5.576,8.564l13.228,8.864
			l-13.222,8.858c-1.222,3.179-3.102,6.099-5.582,8.58c-5.997,5.997-14.342,8.252-22.105,6.767v4.107
			c0,0.826,0.439,1.586,1.152,1.998c0.712,0.413,1.591,0.413,2.306,0l43.215-28.316C76.047,42.999,76.047,40.652,74.619,39.829z"/>
		<path d="M32.557,21.363v-3.861l8.482,5.684c2.025,0.917,3.898,2.167,5.561,3.727l9.028,6.051
			c-1.222-3.174-3.099-6.088-5.576-8.564c-4.656-4.657-10.849-7.226-17.436-7.226c-1.585,0-3.147,0.152-4.67,0.443v4.297
			C29.441,21.566,30.982,21.367,32.557,21.363z"/>
		<path d="M50.052,59.266c2.48-2.481,4.36-5.401,5.582-8.58l-8.986,6.022c-1.69,1.592-3.583,2.839-5.596,3.749l-8.495,5.691v-3.86
			c-1.55-0.004-3.095-0.202-4.61-0.555v4.3C35.71,67.518,44.055,65.263,50.052,59.266z"/>
	</g>
</g>
</svg>
