<?xml version="1.0" encoding="utf-8"?>
<!-- Generator: Adobe Illustrator 16.0.0, SVG Export Plug-In . SVG Version: 6.00 Build 0)  -->
<!DOCTYPE svg PUBLIC "-//W3C//DTD SVG 1.1//EN" "http://www.w3.org/Graphics/SVG/1.1/DTD/svg11.dtd">
<svg version="1.1" xmlns="http://www.w3.org/2000/svg" xmlns:xlink="http://www.w3.org/1999/xlink" x="0px" y="0px" width="83.65px"
	 height="83.649px" viewBox="0 0 83.65 83.649" enable-background="new 0 0 83.65 83.649" xml:space="preserve">
<g id="Layer_2">
</g>
<g id="Fondo">
	<g display="none">
		
			<rect x="-471.407" y="3254.308" display="inline" fill="none" stroke="#8E9090" stroke-width="4.5354" stroke-miterlimit="10" width="222.06" height="222.06"/>
		
			<rect x="-270.387" y="3333.859" display="inline" fill="none" stroke="#8E9090" stroke-width="4.5354" stroke-miterlimit="10" width="37.01" height="37.009"/>
		
			<rect x="-400.756" y="3450.359" display="inline" fill="none" stroke="#8E9090" stroke-width="4.5354" stroke-miterlimit="10" width="37.01" height="37.009"/>
	</g>
	<g>
		<path d="M36.7,63.585l6.881-5.252c1.707-1.339,2.363-2.206,2.363-3.309c0-1.155-0.814-1.864-2.049-1.864
			c-1.233,0-2.205,0.709-3.649,2.363l-3.44-2.862c1.97-2.548,3.913-3.939,7.484-3.939c4.018,0,6.775,2.39,6.775,5.856v0.053
			c0,2.941-1.523,4.464-4.255,6.434l-3.151,2.206h7.59v4.149H36.7V63.585z"/>
		<path d="M53.848,49.038h7.091c6.564,0,10.372,3.78,10.372,9.085v0.053c0,5.305-3.859,9.244-10.478,9.244h-6.985V49.038z
			 M61.017,62.902c3.047,0,5.068-1.681,5.068-4.647v-0.053c0-2.941-2.021-4.648-5.068-4.648h-2.074v9.349H61.017z"/>
	</g>
	<g>
		<path d="M12.181,31.488l3.204-3.204c1.312,1.339,2.704,2.101,4.385,2.101c1.444,0,2.364-0.735,2.364-1.864v-0.053
			c0-1.182-1.077-1.891-2.994-1.891h-2.153l-0.735-2.652l4.228-3.808h-7.037v-4.123h13.287v3.65l-4.385,3.755
			c2.626,0.578,4.753,2.049,4.753,5.174v0.053c0,3.729-2.994,6.118-7.091,6.118C16.461,34.744,13.967,33.457,12.181,31.488z"/>
		<path d="M29.643,15.994h7.091c6.564,0,10.372,3.781,10.372,9.086v0.053c0,5.305-3.859,9.244-10.478,9.244h-6.985V15.994z
			 M36.812,29.859c3.047,0,5.068-1.681,5.068-4.647v-0.053c0-2.941-2.021-4.648-5.068-4.648h-2.074v9.349H36.812z"/>
	</g>
	<g opacity="0.3">
		<g>
			<path d="M62.947,46.85c-0.532,0-1.061-0.189-1.48-0.568l-6.725-6.037c-0.914-0.818-0.987-2.219-0.17-3.129
				c0.818-0.909,2.221-0.985,3.13-0.168l5.245,4.708l5.25-4.708c0.909-0.818,2.311-0.742,3.129,0.168s0.744,2.313-0.168,3.129
				l-6.73,6.037C64.004,46.661,63.476,46.85,62.947,46.85L62.947,46.85z"/>
		</g>
		<g>
			<path d="M63.281,43.828c-1.225,0-2.217-0.991-2.217-2.216c0-10.579-8.607-19.187-19.189-19.187c-6.601,0-12.66,3.33-16.209,8.906
				c-0.652,1.028-2.021,1.333-3.059,0.68c-1.031-0.655-1.338-2.025-0.68-3.059c4.366-6.863,11.823-10.959,19.947-10.959
				c13.027,0,23.621,10.596,23.621,23.62C65.496,42.836,64.506,43.828,63.281,43.828L63.281,43.828z"/>
		</g>
		<g>
			<path d="M41.992,65.658c-13.023,0-23.623-10.597-23.623-23.624c0-1.224,0.992-2.216,2.217-2.216s2.215,0.992,2.215,2.216
				c0,10.582,8.609,19.192,19.191,19.192c6.6,0,12.658-3.332,16.212-8.913c0.657-1.032,2.034-1.332,3.06-0.68
				c1.035,0.659,1.338,2.027,0.68,3.06C57.572,61.559,50.111,65.658,41.992,65.658L41.992,65.658z"/>
		</g>
		<g>
			<path d="M27.428,47.271c-0.527,0-1.061-0.187-1.48-0.567l-5.244-4.711l-5.25,4.711c-0.914,0.816-2.316,0.742-3.13-0.168
				c-0.817-0.911-0.744-2.311,0.169-3.129l6.73-6.039c0.844-0.758,2.12-0.758,2.96,0l6.726,6.039
				c0.908,0.818,0.986,2.218,0.169,3.129C28.64,47.022,28.034,47.271,27.428,47.271L27.428,47.271z"/>
		</g>
	</g>
</g>
</svg>
