<?xml version="1.0" encoding="utf-8"?>
<!-- Generator: Adobe Illustrator 16.0.0, SVG Export Plug-In . SVG Version: 6.00 Build 0)  -->
<!DOCTYPE svg PUBLIC "-//W3C//DTD SVG 1.1//EN" "http://www.w3.org/Graphics/SVG/1.1/DTD/svg11.dtd">
<svg version="1.1" xmlns="http://www.w3.org/2000/svg" xmlns:xlink="http://www.w3.org/1999/xlink" x="0px" y="0px" width="83.65px"
	 height="83.65px" viewBox="0 0 83.65 83.65" enable-background="new 0 0 83.65 83.65" xml:space="preserve">
<g id="Layer_2">
</g>
<g id="Fondo">
	<path fill="#FAD116" d="M83.65,10.658C83.65,4.771,78.879,0,72.992,0H10.658C4.771,0,0,4.771,0,10.658v62.333
		C0,78.878,4.771,83.65,10.658,83.65h62.334c5.887,0,10.658-4.771,10.658-10.659V10.658z"/>
	<g>
		<path d="M53.041,43.917H12.363c-0.854,0-1.496-0.202-1.934-0.606c-0.438-0.404-0.654-0.92-0.654-1.545
			c0-0.621,0.225-1.131,0.67-1.517c0.445-0.39,1.086-0.584,1.918-0.584h40.555c0.842,0,1.475,0.194,1.9,0.584
			c0.428,0.386,0.639,0.896,0.639,1.517c0,0.625-0.211,1.141-0.639,1.545C54.393,43.715,53.799,43.917,53.041,43.917z"/>
		<path d="M30.729,23.351h3.775l6.016,14.232H36.32l-1.029-2.524H29.84l-1.01,2.524h-4.117L30.729,23.351z M34.16,32.011
			l-1.574-4.017l-1.596,4.017H34.16z"/>
		<g>
			<path d="M30.729,45.424h3.775l6.016,14.232H36.32l-1.029-2.524H29.84l-1.01,2.524h-4.117L30.729,45.424z M34.16,54.084
				l-1.574-4.017l-1.596,4.017H34.16z"/>
			<path d="M38.926,45.424c-0.932,0-1.615,0.684-1.615,1.535v0.02c0,0.842,0.674,1.514,1.596,1.514c0.93,0,1.613-0.683,1.613-1.534
				v-0.02C40.52,46.098,39.846,45.424,38.926,45.424z M39.51,46.979c0,0.356-0.229,0.634-0.584,0.634
				c-0.357,0-0.605-0.288-0.605-0.654v-0.02c0-0.356,0.229-0.644,0.586-0.644c0.355,0,0.604,0.297,0.604,0.664V46.979z"/>
		</g>
		<path fill="none" d="M53.086,41.833c0-5.468-2.129-10.607-5.994-14.474c-0.158-0.157-0.33-0.294-0.492-0.446l-5.561-3.727
			c-2.615-1.183-5.467-1.826-8.422-1.826c-0.02,0-0.039,0.003-0.061,0.003v40.926c2.904,0.008,5.801-0.616,8.496-1.832l5.596-3.749
			c0.145-0.137,0.301-0.259,0.443-0.402C50.957,52.442,53.086,47.3,53.086,41.833z"/>
		<path fill="none" d="M18.139,27.356c-3.863,3.865-5.992,9.002-5.992,14.469c0,5.473,2.129,10.617,5.996,14.485
			c2.797,2.795,6.211,4.588,9.805,5.424V21.914C24.264,22.769,20.879,24.615,18.139,27.356z"/>
		<path fill="none" d="M55.635,50.686l13.221-8.858l-13.227-8.864c1.076,2.793,1.643,5.787,1.643,8.87
			C57.271,44.91,56.705,47.897,55.635,50.686z"/>
		<path d="M32.557,62.288v3.86l8.496-5.692C38.357,61.672,35.461,62.296,32.557,62.288z"/>
		<path d="M18.143,56.309c-3.867-3.867-5.996-9.012-5.996-14.485c0-5.467,2.129-10.603,5.992-14.469
			c2.74-2.741,6.125-4.587,9.809-5.442v-4.297c-4.811,0.916-9.232,3.242-12.768,6.778c-4.656,4.654-7.219,10.846-7.219,17.429
			c0,6.592,2.564,12.785,7.223,17.446c3.615,3.614,8.084,5.867,12.764,6.763v-4.301C24.354,60.897,20.939,59.104,18.143,56.309z"/>
		<path d="M41.039,23.186l-8.482-5.683v3.86c0.021,0,0.041-0.003,0.061-0.003C35.572,21.36,38.424,22.003,41.039,23.186z"/>
		<path d="M47.092,27.359c3.865,3.867,5.994,9.006,5.994,14.474c0,5.467-2.129,10.609-5.994,14.473
			c-0.143,0.143-0.299,0.264-0.443,0.402l8.986-6.022c1.07-2.788,1.637-5.776,1.637-8.853c0-3.083-0.566-6.077-1.643-8.87
			L46.6,26.913C46.762,27.065,46.934,27.202,47.092,27.359z"/>
		<path d="M46.648,56.708l-5.596,3.749C43.064,59.548,44.959,58.3,46.648,56.708z"/>
		<path d="M41.039,23.186l5.561,3.727C44.939,25.354,43.064,24.103,41.039,23.186z"/>
		<path d="M74.619,39.829L31.404,11.513c-0.713-0.414-1.594-0.414-2.305,0c-0.713,0.411-1.152,1.171-1.152,1.995v4.108
			c1.523-0.291,3.084-0.443,4.67-0.443c6.586,0,12.779,2.569,17.436,7.226c2.477,2.476,4.355,5.39,5.576,8.564l13.227,8.864
			l-13.221,8.858c-1.223,3.18-3.102,6.1-5.582,8.581c-5.998,5.997-14.342,8.252-22.105,6.767v4.107c0,0.826,0.439,1.586,1.152,1.997
			c0.711,0.414,1.592,0.414,2.305,0l43.215-28.316C76.047,42.999,76.047,40.652,74.619,39.829z"/>
		<path d="M32.557,21.363v-3.86l8.482,5.683c2.025,0.917,3.9,2.168,5.561,3.727l9.029,6.051c-1.221-3.174-3.1-6.088-5.576-8.564
			c-4.656-4.657-10.85-7.226-17.436-7.226c-1.586,0-3.146,0.153-4.67,0.443v4.297C29.441,21.566,30.982,21.368,32.557,21.363z"/>
		<path d="M50.053,59.266c2.48-2.481,4.359-5.401,5.582-8.581l-8.986,6.022c-1.689,1.593-3.584,2.84-5.596,3.749l-8.496,5.692v-3.86
			c-1.549-0.005-3.094-0.202-4.609-0.556v4.301C35.711,67.519,44.055,65.263,50.053,59.266z"/>
	</g>
	<g>
		<defs>
			<rect id="SVGID_8_" x="-815.898" y="272.479" width="985.359" height="553.749"/>
		</defs>
		<clipPath id="SVGID_1_">
			<use xlink:href="#SVGID_8_"  overflow="visible"/>
		</clipPath>
		<g transform="matrix(1 0 0 1 0 -3.814697e-06)" clip-path="url(#SVGID_1_)">
			
				<image overflow="visible" width="3002" height="2330" xlink:href="../../../../../Desktop/Captura de pantalla 2020-04-27 a las 13.42.52.png"  transform="matrix(0.5 0 0 0.5 -1288.8281 -41.7251)">
			</image>
		</g>
	</g>
</g>
</svg>
