<?xml version="1.0" encoding="utf-8"?>
<!-- Generator: Adobe Illustrator 16.0.0, SVG Export Plug-In . SVG Version: 6.00 Build 0)  -->
<!DOCTYPE svg PUBLIC "-//W3C//DTD SVG 1.1//EN" "http://www.w3.org/Graphics/SVG/1.1/DTD/svg11.dtd">
<svg version="1.1" xmlns="http://www.w3.org/2000/svg" xmlns:xlink="http://www.w3.org/1999/xlink" x="0px" y="0px" width="83.65px"
	 height="83.649px" viewBox="0 0 83.65 83.649" enable-background="new 0 0 83.65 83.649" xml:space="preserve">
<g id="Layer_2">
</g>
<g id="Fondo">
	<g>
		<g>
			<path fill="#FAD116" d="M41.825,78.818c-20.394,0-36.993-16.596-36.993-36.993c0-20.396,16.6-36.993,36.993-36.993
				c20.399,0,36.993,16.596,36.993,36.993C78.818,62.222,62.225,78.818,41.825,78.818L41.825,78.818z M41.825,11.385
				c-16.784,0-30.441,13.656-30.441,30.44c0,16.785,13.657,30.441,30.441,30.441c16.783,0,30.438-13.656,30.438-30.441
				C72.264,25.041,58.608,11.385,41.825,11.385L41.825,11.385z"/>
		</g>
		<g>
			<g>
				<path fill="#FAD116" d="M43.757,57.784c-0.837,0-1.677-0.319-2.315-0.959L28.771,44.142c-1.28-1.28-1.28-3.354,0-4.633
					l12.671-12.683c1.278-1.28,3.352-1.28,4.632,0c1.279,1.276,1.279,3.354,0,4.634L35.718,41.825l10.355,10.367
					c1.279,1.28,1.279,3.355,0,4.633C45.435,57.464,44.596,57.784,43.757,57.784L43.757,57.784z"/>
			</g>
			<g>
				<path fill="#FAD116" d="M57.254,45.102H34.536c-1.812,0-3.276-1.465-3.276-3.277c0-1.811,1.465-3.276,3.276-3.276h22.718
					c1.809,0,3.275,1.465,3.275,3.276C60.529,43.636,59.062,45.102,57.254,45.102L57.254,45.102z"/>
			</g>
		</g>
	</g>
</g>
</svg>
