<?xml version="1.0" encoding="utf-8"?>
<!-- Generator: Adobe Illustrator 16.0.0, SVG Export Plug-In . SVG Version: 6.00 Build 0)  -->
<!DOCTYPE svg PUBLIC "-//W3C//DTD SVG 1.1//EN" "http://www.w3.org/Graphics/SVG/1.1/DTD/svg11.dtd">
<svg version="1.1" xmlns="http://www.w3.org/2000/svg" xmlns:xlink="http://www.w3.org/1999/xlink" x="0px" y="0px" width="83.65px"
	 height="83.649px" viewBox="0 0 83.65 83.649" enable-background="new 0 0 83.65 83.649" xml:space="preserve">
<g id="Layer_2">
</g>
<g id="Fondo">
	<g>
		<g>
			<path fill="#FAD116" d="M40.093,54.267c-0.848,0-1.656-0.348-2.246-0.963l-8.021-8.428c-1.182-1.234-1.132-3.193,0.109-4.374
				c1.23-1.174,3.189-1.13,4.375,0.113l5.611,5.886l15.49-18.884c1.084-1.318,3.031-1.52,4.354-0.437
				c1.325,1.091,1.512,3.039,0.435,4.36L42.484,53.133c-0.562,0.686-1.389,1.1-2.276,1.129
				C40.166,54.267,40.132,54.267,40.093,54.267L40.093,54.267z"/>
		</g>
		<g>
			<path fill="#FFFFFF" d="M43.786,78.261c-9.738,0-18.887-3.79-25.766-10.668C3.812,53.379,3.817,30.266,18.027,16.055
				C24.909,9.179,34.062,5.39,43.79,5.39c9.734,0,18.883,3.789,25.764,10.665c14.203,14.204,14.203,37.32,0.004,51.533
				C62.673,74.472,53.521,78.261,43.786,78.261L43.786,78.261z M43.79,11.575c-8.084,0-15.676,3.144-21.387,8.857
				C10.61,32.227,10.61,51.417,22.397,63.219c5.709,5.708,13.304,8.857,21.389,8.857c8.082,0,15.682-3.149,21.398-8.866
				c11.786-11.792,11.786-30.983-0.01-42.777C59.468,14.719,51.868,11.575,43.79,11.575L43.79,11.575z"/>
		</g>
	</g>
</g>
</svg>
