<?xml version="1.0" encoding="utf-8"?>
<!-- Generator: Adobe Illustrator 16.0.0, SVG Export Plug-In . SVG Version: 6.00 Build 0)  -->
<!DOCTYPE svg PUBLIC "-//W3C//DTD SVG 1.1//EN" "http://www.w3.org/Graphics/SVG/1.1/DTD/svg11.dtd">
<svg version="1.1" xmlns="http://www.w3.org/2000/svg" xmlns:xlink="http://www.w3.org/1999/xlink" x="0px" y="0px" width="83.65px"
	 height="83.65px" viewBox="0 0 83.65 83.65" enable-background="new 0 0 83.65 83.65" xml:space="preserve">
<g id="Layer_2">
</g>
<g id="Fondo">
	<path fill="#FAD116" d="M83.65,10.658C83.65,4.771,78.879,0,72.992,0H10.658C4.771,0,0,4.771,0,10.658v62.333
		C0,78.878,4.771,83.65,10.658,83.65h62.334c5.887,0,10.658-4.771,10.658-10.659V10.658z"/>
	<g>
		<defs>
			<rect id="SVGID_8_" x="292.299" y="272.479" width="985.359" height="553.749"/>
		</defs>
		<clipPath id="SVGID_1_">
			<use xlink:href="#SVGID_8_"  overflow="visible"/>
		</clipPath>
		<g transform="matrix(1 0 0 1 0 -3.814697e-06)" clip-path="url(#SVGID_1_)">
			
				<image overflow="visible" width="3002" height="2330" xlink:href="../../../../../Desktop/Captura de pantalla 2020-04-27 a las 13.42.52.png"  transform="matrix(0.5 0 0 0.5 -180.6309 -41.7251)">
			</image>
		</g>
	</g>
	<g>
		<g>
			<g>
				<path d="M12.355,31.537l6.881-5.253c1.707-1.338,2.363-2.205,2.363-3.309c0-1.155-0.814-1.864-2.049-1.864
					c-1.233,0-2.205,0.709-3.649,2.364l-3.44-2.863c1.97-2.547,3.913-3.938,7.484-3.938c4.018,0,6.775,2.39,6.775,5.855v0.053
					c0,2.941-1.523,4.464-4.255,6.434l-3.151,2.206h7.59v4.149H12.355V31.537z"/>
				<path d="M29.503,16.988h7.091c6.564,0,10.372,3.781,10.372,9.086v0.053c0,5.304-3.859,9.243-10.478,9.243h-6.985V16.988z
					 M36.672,30.853c3.047,0,5.068-1.681,5.068-4.647v-0.052c0-2.942-2.021-4.649-5.068-4.649h-2.074v9.349H36.672z"/>
			</g>
			<g>
				<path d="M36.37,65.026l3.204-3.204c1.312,1.339,2.704,2.101,4.385,2.101c1.444,0,2.364-0.736,2.364-1.865v-0.053
					c0-1.182-1.077-1.891-2.994-1.891h-2.153l-0.735-2.652l4.228-3.808h-7.037v-4.123h13.287v3.65l-4.385,3.755
					c2.626,0.578,4.753,2.049,4.753,5.174v0.052c0,3.729-2.994,6.118-7.091,6.118C40.65,68.282,38.156,66.995,36.37,65.026z"/>
				<path d="M53.832,49.532h7.091c6.564,0,10.372,3.781,10.372,9.086v0.053c0,5.305-3.859,9.243-10.478,9.243h-6.985V49.532z
					 M61.001,63.397c3.047,0,5.068-1.68,5.068-4.647v-0.053c0-2.941-2.021-4.648-5.068-4.648h-2.074v9.348H61.001z"/>
			</g>
		</g>
		<g opacity="0.3">
			<g>
				<path d="M62.947,47.502c-0.532,0-1.061-0.189-1.48-0.568l-6.725-6.037c-0.914-0.818-0.987-2.219-0.17-3.13
					c0.818-0.908,2.221-0.984,3.13-0.168l5.245,4.708l5.25-4.708c0.909-0.819,2.311-0.742,3.129,0.168
					c0.818,0.911,0.744,2.313-0.168,3.13l-6.73,6.037C64.004,47.313,63.476,47.502,62.947,47.502L62.947,47.502z"/>
			</g>
			<g>
				<path d="M63.281,44.48c-1.225,0-2.217-0.991-2.217-2.216c0-10.579-8.607-19.188-19.189-19.188c-6.601,0-12.66,3.33-16.209,8.906
					c-0.652,1.028-2.021,1.333-3.059,0.68c-1.031-0.655-1.338-2.025-0.68-3.06c4.366-6.862,11.823-10.958,19.947-10.958
					c13.027,0,23.621,10.595,23.621,23.62C65.496,43.489,64.506,44.48,63.281,44.48L63.281,44.48z"/>
			</g>
			<g>
				<path d="M41.992,66.31c-13.023,0-23.623-10.596-23.623-23.624c0-1.224,0.992-2.216,2.217-2.216s2.215,0.991,2.215,2.216
					c0,10.582,8.609,19.192,19.191,19.192c6.6,0,12.658-3.332,16.212-8.913c0.657-1.032,2.034-1.331,3.06-0.68
					c1.035,0.658,1.338,2.027,0.68,3.06C57.572,62.212,50.111,66.31,41.992,66.31L41.992,66.31z"/>
			</g>
			<g>
				<path d="M27.428,47.924c-0.527,0-1.061-0.187-1.48-0.567l-5.244-4.711l-5.25,4.711c-0.914,0.817-2.316,0.742-3.13-0.169
					c-0.817-0.911-0.744-2.311,0.169-3.129l6.73-6.039c0.844-0.758,2.12-0.758,2.96,0l6.726,6.039
					c0.908,0.818,0.986,2.218,0.169,3.129C28.64,47.675,28.034,47.924,27.428,47.924L27.428,47.924z"/>
			</g>
		</g>
	</g>
</g>
</svg>
