<?xml version="1.0" encoding="utf-8"?>
<!-- Generator: Adobe Illustrator 16.0.0, SVG Export Plug-In . SVG Version: 6.00 Build 0)  -->
<!DOCTYPE svg PUBLIC "-//W3C//DTD SVG 1.1//EN" "http://www.w3.org/Graphics/SVG/1.1/DTD/svg11.dtd">
<svg version="1.1" xmlns="http://www.w3.org/2000/svg" xmlns:xlink="http://www.w3.org/1999/xlink" x="0px" y="0px" width="83.65px"
	 height="83.649px" viewBox="0 0 83.65 83.649" enable-background="new 0 0 83.65 83.649" xml:space="preserve">
<g id="Layer_2">
</g>
<g id="Fondo">
	<g>
		<g>
			<g>
				<path fill="#FAD116" d="M41.825,57.261c-1.728,0-3.124-1.4-3.124-3.123V29.553c0-1.727,1.396-3.124,3.124-3.124
					c1.724,0,3.121,1.397,3.121,3.124v24.585C44.946,55.861,43.549,57.261,41.825,57.261L41.825,57.261z"/>
			</g>
			<g>
				<path fill="#FAD116" d="M54.118,44.966H29.532c-1.727,0-3.122-1.399-3.122-3.122c0-1.727,1.396-3.123,3.122-3.123h24.586
					c1.725,0,3.122,1.396,3.122,3.123C57.24,43.567,55.843,44.966,54.118,44.966L54.118,44.966z"/>
			</g>
		</g>
		<g>
			<path fill="#FAD116" d="M41.818,78.608c-9.82,0-19.053-3.82-25.994-10.763c-14.337-14.34-14.331-37.67,0.005-52.002
				c6.945-6.944,16.175-10.77,25.996-10.77c9.82,0,19.056,3.826,26.001,10.77c14.333,14.335,14.333,37.662,0,51.997
				C60.878,74.785,51.642,78.608,41.818,78.608L41.818,78.608z M41.825,11.318c-8.154,0-15.819,3.178-21.582,8.94
				C8.342,32.158,8.342,51.524,20.238,63.43c5.762,5.763,13.428,8.935,21.58,8.935c8.159,0,15.823-3.175,21.593-8.94
				c11.897-11.9,11.897-31.265,0-43.167C57.65,14.496,49.984,11.318,41.825,11.318L41.825,11.318z"/>
		</g>
	</g>
</g>
</svg>
