<?xml version="1.0" encoding="utf-8"?>
<!-- Generator: Adobe Illustrator 16.0.0, SVG Export Plug-In . SVG Version: 6.00 Build 0)  -->
<!DOCTYPE svg PUBLIC "-//W3C//DTD SVG 1.1//EN" "http://www.w3.org/Graphics/SVG/1.1/DTD/svg11.dtd">
<svg version="1.1" xmlns="http://www.w3.org/2000/svg" xmlns:xlink="http://www.w3.org/1999/xlink" x="0px" y="0px" width="83.65px"
	 height="83.649px" viewBox="0 0 83.65 83.649" enable-background="new 0 0 83.65 83.649" xml:space="preserve">
<g id="Layer_2">
</g>
<g id="Fondo">
	<g>
		<g>
			<g>
				<path fill="#FAD116" d="M54.044,44.927H29.615c-1.716,0-3.103-1.387-3.103-3.102c0-1.712,1.387-3.102,3.103-3.102h24.429
					c1.715,0,3.103,1.39,3.103,3.102C57.146,43.541,55.759,44.927,54.044,44.927L54.044,44.927z"/>
			</g>
		</g>
		<g>
			<path fill="#FAD116" d="M41.83,78.356c-9.761,0-18.935-3.798-25.829-10.696c-6.9-6.898-10.7-16.074-10.7-25.835
				s3.806-18.934,10.706-25.834C22.901,9.093,32.075,5.293,41.835,5.293c9.756,0,18.934,3.799,25.83,10.698
				c14.244,14.244,14.244,37.421,0.006,51.664C60.764,74.555,51.591,78.356,41.83,78.356L41.83,78.356z M41.835,11.498
				c-8.1,0-15.717,3.154-21.441,8.88c-5.731,5.729-8.889,13.345-8.889,21.448s3.157,15.723,8.883,21.448
				C26.113,69,33.729,72.153,41.83,72.153s15.722-3.156,21.454-8.885c11.82-11.824,11.82-31.064-0.006-42.891
				C57.552,14.652,49.935,11.498,41.835,11.498L41.835,11.498z"/>
		</g>
	</g>
</g>
</svg>
