<?xml version="1.0" encoding="utf-8"?>
<!-- Generator: Adobe Illustrator 16.0.0, SVG Export Plug-In . SVG Version: 6.00 Build 0)  -->
<!DOCTYPE svg PUBLIC "-//W3C//DTD SVG 1.1//EN" "http://www.w3.org/Graphics/SVG/1.1/DTD/svg11.dtd">
<svg version="1.1" xmlns="http://www.w3.org/2000/svg" xmlns:xlink="http://www.w3.org/1999/xlink" x="0px" y="0px" width="83.65px"
	 height="83.65px" viewBox="0 0 83.65 83.65" enable-background="new 0 0 83.65 83.65" xml:space="preserve">
<g id="Layer_2">
</g>
<g id="Fondo">
	<path fill="#FAD116" d="M83.65,10.658C83.65,4.771,78.879,0,72.99,0H10.658C4.771,0,0,4.771,0,10.658v62.333
		C0,78.878,4.771,83.65,10.658,83.65H72.99c5.889,0,10.66-4.771,10.66-10.659V10.658z"/>
	<g>
		<defs>
			<rect id="SVGID_8_" x="-182.643" y="272.479" width="985.359" height="553.749"/>
		</defs>
		<clipPath id="SVGID_1_">
			<use xlink:href="#SVGID_8_"  overflow="visible"/>
		</clipPath>
		<g transform="matrix(1 0 0 1 0 -3.814697e-06)" clip-path="url(#SVGID_1_)">
			
				<image overflow="visible" width="3002" height="2330" xlink:href="../../../../../Desktop/Captura de pantalla 2020-04-27 a las 13.42.52.png"  transform="matrix(0.5 0 0 0.5 -655.5723 -41.7251)">
			</image>
		</g>
	</g>
	<g>
		<path d="M33.622,53.139c0.007-0.026,0.015-0.052,0.021-0.079H15.387c-0.503,0-1.006-0.081-1.542-0.258
			c-2.527-0.76-4.291-3.135-4.291-5.773c0-3.325,2.706-6.03,6.033-6.03c0.402,0,0.816,0.042,1.23,0.128l2.225,0.458l0.048-2.273
			c0.096-4.81,4.085-8.724,8.895-8.724c4.144,0,7.706,2.825,8.655,6.866l0.492,2.074l1.999-0.73
			c0.803-0.294,1.635-0.442,2.474-0.442c0.172,0,0.339,0.014,0.509,0.026c0.858-1.106,1.69-2.229,2.461-3.396
			c-0.947-0.263-1.94-0.414-2.97-0.414c-0.628,0-1.248,0.053-1.866,0.161c-1.907-4.75-6.502-7.93-11.754-7.93
			c-6.166,0-11.39,4.514-12.476,10.412c-5.378,0.041-9.739,4.428-9.739,9.815c0,4.295,2.871,8.158,6.937,9.382
			c0.873,0.288,1.774,0.434,2.681,0.434h17.199C32.96,55.619,33.289,54.378,33.622,53.139z"/>
		<g>
			<g>
				<path d="M51.082,46.494l-0.414-6.197c-0.078-1.207-0.117-2.074-0.117-2.6c0-0.715,0.188-1.274,0.562-1.677
					c0.377-0.398,0.871-0.6,1.48-0.6c0.745,0,1.239,0.256,1.49,0.77c0.248,0.512,0.374,1.251,0.374,2.218
					c0,0.569-0.028,1.149-0.089,1.734l-0.558,6.378c-0.059,0.76-0.189,1.342-0.388,1.747c-0.196,0.405-0.524,0.608-0.982,0.608
					c-0.468,0-0.79-0.196-0.969-0.59C51.289,47.894,51.16,47.297,51.082,46.494z M52.517,55.008c-0.526,0-0.983-0.17-1.38-0.512
					c-0.392-0.34-0.586-0.816-0.586-1.428c0-0.534,0.188-0.989,0.562-1.366c0.377-0.373,0.834-0.562,1.379-0.562
					c0.544,0,1.01,0.189,1.389,0.562c0.386,0.377,0.577,0.832,0.577,1.366c0,0.604-0.191,1.077-0.579,1.423
					C53.488,54.836,53.035,55.008,52.517,55.008z"/>
			</g>
			<g>
				<path d="M75.986,63.815h-46.49c-0.678,0-1.3-0.362-1.638-0.947c-0.34-0.586-0.34-1.307,0-1.892l23.243-40.263
					c0.675-1.172,2.603-1.172,3.277,0l23.247,40.263c0.34,0.585,0.34,1.306,0,1.892C77.289,63.454,76.666,63.815,75.986,63.815
					L75.986,63.815z M32.775,60.029H72.71L52.741,25.444L32.775,60.029L32.775,60.029z"/>
			</g>
		</g>
	</g>
</g>
</svg>
