<?xml version="1.0" encoding="utf-8"?>
<!-- Generator: Adobe Illustrator 16.0.0, SVG Export Plug-In . SVG Version: 6.00 Build 0)  -->
<!DOCTYPE svg PUBLIC "-//W3C//DTD SVG 1.1//EN" "http://www.w3.org/Graphics/SVG/1.1/DTD/svg11.dtd">
<svg version="1.1" xmlns="http://www.w3.org/2000/svg" xmlns:xlink="http://www.w3.org/1999/xlink" x="0px" y="0px" width="83.65px"
	 height="83.649px" viewBox="0 0 83.65 83.649" enable-background="new 0 0 83.65 83.649" xml:space="preserve">
<g id="Layer_2">
</g>
<g id="Fondo">
	<g>
		<g>
			<path fill="#FFFFFF" d="M37.167,62.739c-17.576,0-31.886-14.305-31.893-31.885C5.281,13.262,19.591-1.049,37.173-1.053
				c17.58,0,31.893,14.308,31.897,31.897C69.07,48.43,54.76,62.739,37.167,62.739L37.167,62.739z M37.173,5.347
				C23.117,5.351,11.682,16.792,11.675,30.854C11.682,44.905,23.117,56.34,37.167,56.34c14.067,0,25.503-11.437,25.503-25.493
				C62.664,16.786,51.229,5.347,37.173,5.347L37.173,5.347z"/>
		</g>
		<g>
			<path fill="#FFFFFF" d="M75.175,73.281c-0.818,0-1.636-0.313-2.262-0.938L55.096,54.531c-1.249-1.248-1.249-3.276,0-4.526
				c1.25-1.246,3.275-1.246,4.524,0l17.818,17.816c1.249,1.248,1.249,3.272,0,4.522C76.813,72.968,75.994,73.281,75.175,73.281
				L75.175,73.281z"/>
		</g>
		<g>
			<path fill="#FFFFFF" d="M49.778,33.673H24.58c-1.77,0-3.199-1.431-3.199-3.201c0-1.766,1.43-3.199,3.199-3.199h25.198
				c1.769,0,3.199,1.433,3.199,3.199C52.978,32.242,51.547,33.673,49.778,33.673L49.778,33.673z"/>
		</g>
	</g>
</g>
</svg>
