<?xml version="1.0" encoding="utf-8"?>
<!-- Generator: Adobe Illustrator 16.0.0, SVG Export Plug-In . SVG Version: 6.00 Build 0)  -->
<!DOCTYPE svg PUBLIC "-//W3C//DTD SVG 1.1//EN" "http://www.w3.org/Graphics/SVG/1.1/DTD/svg11.dtd">
<svg version="1.1" xmlns="http://www.w3.org/2000/svg" xmlns:xlink="http://www.w3.org/1999/xlink" x="0px" y="0px" width="83.65px"
	 height="83.649px" viewBox="0 0 83.65 83.649" enable-background="new 0 0 83.65 83.649" xml:space="preserve">
<g id="Layer_2">
</g>
<g id="Fondo">
	<g>
		<g>
			<path fill="#FFFFFF" d="M37.166,68.448c-17.58,0-31.885-14.302-31.891-31.882C5.281,18.974,19.586,4.66,37.172,4.656
				c17.58,0,31.891,14.311,31.898,31.898C69.07,54.143,54.759,68.448,37.166,68.448L37.166,68.448z M37.172,11.056
				c-14.055,0.003-25.491,11.447-25.498,25.51c0.007,14.051,11.438,25.483,25.492,25.483c14.062,0,25.504-11.436,25.504-25.494
				C62.664,22.496,51.228,11.056,37.172,11.056L37.172,11.056z"/>
		</g>
		<g>
			<path fill="#FFFFFF" d="M75.176,78.993c-0.818,0-1.639-0.312-2.262-0.939l-17.818-17.81c-1.25-1.25-1.25-3.277,0-4.527
				c1.25-1.251,3.274-1.251,4.525,0l17.816,17.815c1.25,1.249,1.25,3.274,0,4.522C76.812,78.682,75.994,78.993,75.176,78.993
				L75.176,78.993z"/>
		</g>
		<g>
			<path fill="#FFFFFF" d="M37.179,51.983c-1.769,0-3.2-1.431-3.2-3.199V23.585c0-1.765,1.432-3.199,3.2-3.199s3.2,1.435,3.2,3.199
				v25.199C40.379,50.552,38.947,51.983,37.179,51.983L37.179,51.983z"/>
		</g>
		<g>
			<path fill="#FFFFFF" d="M49.777,39.385H24.58c-1.769,0-3.201-1.431-3.201-3.2c0-1.764,1.433-3.199,3.201-3.199h25.197
				c1.77,0,3.199,1.436,3.199,3.199C52.977,37.953,51.547,39.385,49.777,39.385L49.777,39.385z"/>
		</g>
	</g>
</g>
</svg>
