<?xml version="1.0" encoding="utf-8"?>
<!-- Generator: Adobe Illustrator 16.0.0, SVG Export Plug-In . SVG Version: 6.00 Build 0)  -->
<!DOCTYPE svg PUBLIC "-//W3C//DTD SVG 1.1//EN" "http://www.w3.org/Graphics/SVG/1.1/DTD/svg11.dtd">
<svg version="1.1" xmlns="http://www.w3.org/2000/svg" xmlns:xlink="http://www.w3.org/1999/xlink" x="0px" y="0px" width="83.65px"
	 height="83.649px" viewBox="0 0 83.65 83.649" enable-background="new 0 0 83.65 83.649" xml:space="preserve">
<g id="Layer_2">
</g>
<g id="Fondo">
	<path fill="#E6E7E8" d="M83.65,10.658C83.65,4.771,78.879,0,72.99,0H10.658C4.771,0,0,4.771,0,10.658v62.333
		c0,5.887,4.771,10.658,10.658,10.658H72.99c5.889,0,10.66-4.771,10.66-10.658V10.658z"/>
	<g>
		<path d="M33.622,53.139c0.007-0.026,0.015-0.053,0.021-0.079H15.387c-0.503,0-1.006-0.082-1.542-0.258
			c-2.527-0.76-4.291-3.135-4.291-5.772c0-3.325,2.706-6.031,6.033-6.031c0.402,0,0.816,0.042,1.23,0.128l2.225,0.458l0.048-2.273
			c0.096-4.81,4.085-8.723,8.895-8.723c4.144,0,7.706,2.824,8.655,6.866l0.492,2.073l1.999-0.73
			c0.803-0.294,1.635-0.441,2.474-0.441c0.172,0,0.339,0.014,0.509,0.025c0.858-1.105,1.69-2.229,2.461-3.396
			c-0.947-0.263-1.94-0.414-2.97-0.414c-0.628,0-1.248,0.054-1.866,0.161c-1.907-4.75-6.502-7.929-11.754-7.929
			c-6.166,0-11.39,4.513-12.476,10.41c-5.378,0.041-9.739,4.429-9.739,9.816c0,4.295,2.871,8.159,6.937,9.382
			c0.873,0.288,1.774,0.434,2.681,0.434h17.199C32.96,55.62,33.289,54.377,33.622,53.139z"/>
		<g>
			<g>
				<path d="M51.082,46.494l-0.414-6.197c-0.078-1.207-0.117-2.074-0.117-2.6c0-0.716,0.188-1.274,0.562-1.677
					c0.377-0.398,0.871-0.6,1.48-0.6c0.745,0,1.239,0.256,1.49,0.771c0.248,0.511,0.374,1.251,0.374,2.217
					c0,0.57-0.028,1.148-0.089,1.734l-0.558,6.378c-0.059,0.76-0.189,1.342-0.388,1.747c-0.196,0.405-0.524,0.608-0.982,0.608
					c-0.468,0-0.79-0.196-0.969-0.59C51.289,47.894,51.16,47.297,51.082,46.494z M52.517,55.007c-0.526,0-0.983-0.17-1.38-0.512
					c-0.392-0.34-0.586-0.816-0.586-1.428c0-0.534,0.188-0.989,0.562-1.367c0.377-0.373,0.834-0.561,1.379-0.561
					c0.544,0,1.01,0.188,1.389,0.561c0.386,0.377,0.577,0.833,0.577,1.367c0,0.604-0.191,1.077-0.579,1.423
					C53.488,54.836,53.035,55.007,52.517,55.007z"/>
			</g>
			<g>
				<path d="M75.986,63.815h-46.49c-0.678,0-1.3-0.361-1.638-0.946c-0.34-0.585-0.34-1.307,0-1.893l23.243-40.263
					c0.675-1.172,2.603-1.172,3.277,0l23.247,40.263c0.34,0.585,0.34,1.307,0,1.893C77.289,63.454,76.666,63.815,75.986,63.815
					L75.986,63.815z M32.775,60.029H72.71L52.741,25.445L32.775,60.029L32.775,60.029z"/>
			</g>
		</g>
	</g>
	<g>
		<path d="M33.622,53.139c0.007-0.026,0.015-0.053,0.021-0.079H15.387c-0.503,0-1.006-0.082-1.542-0.258
			c-2.527-0.76-4.291-3.135-4.291-5.772c0-3.325,2.706-6.031,6.033-6.031c0.402,0,0.816,0.042,1.23,0.128l2.225,0.458l0.048-2.273
			c0.096-4.81,4.085-8.723,8.895-8.723c4.144,0,7.706,2.824,8.655,6.866l0.492,2.073l1.999-0.73
			c0.803-0.294,1.635-0.441,2.474-0.441c0.172,0,0.339,0.014,0.509,0.025c0.858-1.105,1.69-2.229,2.461-3.396
			c-0.947-0.263-1.94-0.414-2.97-0.414c-0.628,0-1.248,0.054-1.866,0.161c-1.907-4.75-6.502-7.929-11.754-7.929
			c-6.166,0-11.39,4.513-12.476,10.41c-5.378,0.041-9.739,4.429-9.739,9.816c0,4.295,2.871,8.159,6.937,9.382
			c0.873,0.288,1.774,0.434,2.681,0.434h17.199C32.96,55.62,33.289,54.377,33.622,53.139z"/>
		<g>
			<g>
				<path d="M51.082,46.494l-0.414-6.197c-0.078-1.207-0.117-2.074-0.117-2.6c0-0.716,0.188-1.274,0.562-1.677
					c0.377-0.398,0.871-0.6,1.48-0.6c0.745,0,1.239,0.256,1.49,0.771c0.248,0.511,0.374,1.251,0.374,2.217
					c0,0.57-0.028,1.148-0.089,1.734l-0.558,6.378c-0.059,0.76-0.189,1.342-0.388,1.747c-0.196,0.405-0.524,0.608-0.982,0.608
					c-0.468,0-0.79-0.196-0.969-0.59C51.289,47.894,51.16,47.297,51.082,46.494z M52.517,55.007c-0.526,0-0.983-0.17-1.38-0.512
					c-0.392-0.34-0.586-0.816-0.586-1.428c0-0.534,0.188-0.989,0.562-1.367c0.377-0.373,0.834-0.561,1.379-0.561
					c0.544,0,1.01,0.188,1.389,0.561c0.386,0.377,0.577,0.833,0.577,1.367c0,0.604-0.191,1.077-0.579,1.423
					C53.488,54.836,53.035,55.007,52.517,55.007z"/>
			</g>
			<g>
				<path d="M75.986,63.815h-46.49c-0.678,0-1.3-0.361-1.638-0.946c-0.34-0.585-0.34-1.307,0-1.893l23.243-40.263
					c0.675-1.172,2.603-1.172,3.277,0l23.247,40.263c0.34,0.585,0.34,1.307,0,1.893C77.289,63.454,76.666,63.815,75.986,63.815
					L75.986,63.815z M32.775,60.029H72.71L52.741,25.445L32.775,60.029L32.775,60.029z"/>
			</g>
		</g>
	</g>
</g>
</svg>
